<?xml version="1.0" encoding="UTF-8"?>
<svg width="1024px" height="1024px" viewBox="0 0 1024 1024" version="1.1" xmlns="http://www.w3.org/2000/svg" xmlns:xlink="http://www.w3.org/1999/xlink">
    <title>immutable-cloud-colored</title>
    <defs>
        <linearGradient x1="84.93157%" y1="68.6832241%" x2="19.2340834%" y2="68.6832241%" id="linearGradient-1">
            <stop stop-color="#FA6A4E" offset="0%"></stop>
            <stop stop-color="#F05133" offset="100%"></stop>
        </linearGradient>
    </defs>
    <g id="immutable-cloud-colored" stroke="none" stroke-width="1" fill="none" fill-rule="evenodd">
        <g id="Group" transform="translate(86.000000, 256.000000)">
            <path d="M436,16 C555.356194,16 655.634562,97.6818831 683.985172,208.195719 C686.635146,208.066392 689.30982,208 692,208 C780.36556,208 852,279.63444 852,368 C852,455.481904 781.791085,526.565638 694.645893,527.978565 L692,528 L180,528 C80.588745,528 0,447.411255 0,348 C0,248.588745 80.588745,168 180,168 C187.259053,168 194.417745,168.429698 201.452027,169.265045 C217.343056,133.031591 241.385125,101.184445 271.258367,76.0433139 L375.41,164.2 L375.410424,180.19561 C373.210176,185.701019 372,191.709184 372,198 C372,218.13113 384.39284,235.367757 401.965595,242.496955 L402.499681,242.709891 L402.499681,409.290109 C384.823017,416.214381 372.25341,433.31894 372.003786,453.390859 L372,454 L372.002552,454.499789 L372,455 C372,481.509668 393.490332,503 420,503 C446.244571,503 467.569691,481.937326 467.993569,455.793768 L468,455 L467.997441,454.500841 L468,454 L467.993569,453.206232 C467.703941,435.342792 457.656041,419.851491 442.948183,411.830643 L442.50107,411.589878 L442.49978,247.28378 L503.41,292.2 L503.410424,308.19561 C501.210176,313.701019 500,319.709184 500,326 C500,352.509668 521.490332,374 548,374 C574.509668,374 596,352.509668 596,326 C596,299.490332 574.509668,278 548,278 C542.781131,278 537.756794,278.832889 533.052659,280.372997 L532.382832,280.59781 L465.401847,213.618167 L465.5,197.5 C465.993917,197.311289 466.32725,197.311289 466.5,197.5 C467.586624,198.68702 468,199.577001 468,198 C468,171.490332 446.509668,150 420,150 C414.781131,150 409.756794,150.832889 405.052659,152.372997 L404.382832,152.59781 L304.246722,52.4623224 L304,36.5 C364.841814,22.8333333 408.841814,16 436,16 Z" id="volume" fill="#DB391B"></path>
            <path d="M436,0 C555.356194,0 655.634562,81.6818831 683.985172,192.195719 C686.635146,192.066392 689.30982,192 692,192 C780.36556,192 852,263.63444 852,352 C852,439.481904 781.791085,510.565638 694.645893,511.978565 L692,512 L180,512 C80.588745,512 0,431.411255 0,332 C0,232.588745 80.588745,152 180,152 C187.259053,152 194.417745,152.429698 201.452027,153.265045 C217.343056,117.031591 241.385125,85.1844449 271.258367,60.0433139 L375.410424,164.19561 C373.210176,169.701019 372,175.709184 372,182 C372,202.13113 384.39284,219.367757 401.965595,226.496955 L402.499681,226.709891 L402.499681,393.290109 C384.823017,400.214381 372.25341,417.31894 372.003786,437.390859 L372,438 L372.002552,438.499789 L372,439 C372,465.509668 393.490332,487 420,487 C446.244571,487 467.569691,465.937326 467.993569,439.793768 L468,439 L467.997441,438.500841 L468,438 L467.993569,437.206232 C467.703941,419.342792 457.656041,403.851491 442.948183,395.830643 L442.50107,395.589878 L442.49978,231.28378 L503.410424,292.19561 C501.210176,297.701019 500,303.709184 500,310 C500,336.509668 521.490332,358 548,358 C574.509668,358 596,336.509668 596,310 C596,283.490332 574.509668,262 548,262 C542.781131,262 537.756794,262.832889 533.052659,264.372997 L532.382832,264.59781 L465.401847,197.618167 C467.085775,192.721988 468,187.467758 468,182 C468,155.490332 446.509668,134 420,134 C414.781131,134 409.756794,134.832889 405.052659,136.372997 L404.382832,136.59781 L304.246722,36.4623224 C342.736179,13.3134196 387.813332,0 436,0 Z" id="Path" fill="url(#linearGradient-1)"></path>
            <path d="M201.452027,153.265045 C290.750808,163.869612 360,239.847798 360,332 C360,387.4393 334.936671,437.024746 295.522682,470.043668 C225.935025,424.284091 180,345.506396 180,256 C180,220.653776 187.163444,186.980664 200.117749,156.353247 L201.452027,153.265045 Z" id="Path" fill="#F14727" opacity="0.788744549"></path>
            <path d="M683.985388,192.196557 C689.217714,212.593037 692,233.9716 692,256 C692,343.614466 647.986342,420.948992 580.863393,467.099211 C551.465416,438.710488 532.915521,399.163276 532.03296,355.280442 C537.02897,357.041907 542.402598,358 548,358 C574.509668,358 596,336.509668 596,310 C596,287.227086 580.141148,268.158206 558.864941,263.234857 C585.726793,223.018991 630.327225,195.66047 681.479956,192.340331 L683.985388,192.196557 Z" id="Path" fill="#FD7157" opacity="0.788744549"></path>
        </g>
    </g>
</svg>